<svg height="445pt" viewBox="-25 0 445 445.24048" width="445pt" xmlns="http://www.w3.org/2000/svg"><path d="m389.582031 121.429688-36.460937 5.300781-16.308594 33.039062-16.3125-33.039062-36.460938-5.300781 26.382813-25.71875-6.230469-36.320313 32.621094 17.148437 32.609375-17.148437-6.222656 36.320313zm0 0" fill="#6fe3ff"/><path d="m335.332031 306.921875v.097656c12.4375 0 22.519531 10.082031 22.519531 22.519531s-10.082031 22.519532-22.519531 22.519532h.679688c12.0625 0 21.839843 9.78125 21.839843 21.84375 0 12.058594-9.777343 21.839844-21.839843 21.839844h-9.972657c12.015626 0 21.75 9.734374 21.75 21.75 0 12.011718-9.734374 21.75-21.75 21.75h-63.636718c-11.332032 0-22.5625-.222657-33.351563-1.941407-10.789062-1.71875-21.179687-4.941406-30.808593-10.910156-19.269532-11.957031-41.496094-18.292969-64.171876-18.289063h-18.039062v-146h19.558594c17.335937.003907 33.625-8.292968 43.8125-22.320312 17.058594-23.703125 28.261718-51.113281 32.6875-79.980469l4.140625-27.039062c20.332031.003906 36.8125 16.488281 36.808593 36.820312v7.476563c0 12.15625-2.1875 24.210937-6.457031 35.59375-4.597656 12.234375-6.253906 25.375-4.839843 38.367187.933593 8.558594 8.160156 15.039063 16.769531 15.039063h78.910156c11.28125 0 20.429687 9.148437 20.429687 20.433594 0 11.28125-9.148437 20.429687-20.429687 20.429687zm0 0" fill="#f7caa5"/><path d="m250.621094 68.039062-36.460938 5.300782-16.308594 33.039062-16.3125-33.039062-36.457031-5.300782 26.378907-25.71875-6.230469-36.320312 32.621093 17.152344 32.621094-17.152344-6.230468 36.320312zm0 0" fill="#6fe3ff"/><path d="m116.03125 408.101562v25.378907h-78.179688v-200.050781h78.179688zm0 0" fill="#f8ec7d"/><path d="m111.660156 121.429688-36.460937 5.300781-16.308594 33.039062-16.308594-33.039062-36.460937-5.300781 26.378906-25.71875-6.21875-36.320313 32.609375 17.148437 32.621094-17.148437-6.230469 36.320313zm0 0" fill="#6fe3ff"/><g fill="#63316d"><path d="m363.851562 286.492188c.007813-14.601563-11.832031-26.4375-26.429687-26.433594h-78.910156c-5.550781.003906-10.210938-4.175782-10.808594-9.691406-1.308594-12.058594.234375-24.257813 4.5-35.613282 4.523437-12.050781 6.839844-24.820312 6.839844-37.695312v-7.476563c-.023438-23.636719-19.171875-42.792969-42.808594-42.820312-2.960937 0-5.480469 2.160156-5.929687 5.089843l-4.144532 27.039063c-4.3125 27.914063-15.144531 54.417969-31.617187 77.363281-9.054688 12.472656-23.539063 19.851563-38.953125 19.847656h-13.558594v-22.671874c0-3.3125-2.6875-6-6-6h-78.179688c-3.316406 0-6 2.6875-6 6v200.050781c0 3.3125 2.683594 6 6 6h78.179688c3.3125 0 6-2.6875 6-6v-19.378907h12.039062c21.558594-.007812 42.691407 6.015626 61.007813 17.386719 9.460937 5.863281 20.261719 9.703125 33.027344 11.734375 11.660156 1.863282 23.816406 2.019532 34.300781 2.019532h63.640625c10.835937.003906 20.683594-6.304688 25.210937-16.148438 4.53125-9.847656 2.910157-21.425781-4.144531-29.652344 9.027344-3.921875 15.3125-12.320312 16.53125-22.085937 1.214844-9.765625-2.816406-19.449219-10.605469-25.464844.859376-.679687 1.679688-1.410156 2.453126-2.183594 5.699218-5.6875 8.722656-13.519531 8.328124-21.5625-.394531-8.039062-4.167968-15.535156-10.394531-20.640625 6.566407-4.988281 10.425781-12.765625 10.425781-21.011718zm-253.820312 140.988281h-66.179688v-188.050781h66.179688zm195.21875-114.460938h30.082031c6.679688 0 12.707031 4.023438 15.261719 10.199219s1.136719 13.28125-3.589844 18c-3.085937 3.109375-7.292968 4.851562-11.671875 4.839844h-30.082031c-3.3125 0-6 2.683594-6 6 0 3.3125 2.6875 6 6 6h30.761719c8.746093 0 15.839843 7.089844 15.839843 15.839844 0 8.746093-7.09375 15.839843-15.839843 15.839843h-44.351563c-3.3125 0-6 2.683594-6 6 0 3.3125 2.6875 6 6 6h34.378906c8.699219 0 15.75 7.050781 15.75 15.75s-7.050781 15.75-15.75 15.75h-63.636718c-10.019532 0-21.613282-.144531-32.40625-1.867187-11.164063-1.777344-20.515625-5.074219-28.589844-10.082032-20.21875-12.550781-43.539062-19.195312-67.335938-19.1875h-12.039062v-134h13.558594c19.265625.003907 37.367187-9.222656 48.679687-24.816406 17.585938-24.488281 29.148438-52.78125 33.753907-82.578125l3.296874-21.527343c14.839844 2.507812 25.707032 15.351562 25.722657 30.402343v7.476563c0 11.433594-2.058594 22.773437-6.074219 33.480468-4.929688 13.117188-6.707031 27.207032-5.1875 41.136719 1.257812 11.605469 11.058594 20.394531 22.730469 20.382813h78.910156c7.96875 0 14.429687 6.460937 14.429687 14.433594 0 7.96875-6.460937 14.429687-14.429687 14.429687h-18.8125c-.359375 0-.714844.035156-1.070313.097656h-12.289062c-3.3125 0-6 2.6875-6 6 0 3.316407 2.6875 6 6 6zm0 0"/><path d="m139.375 69.894531c.707031 2.171875 2.582031 3.753907 4.84375 4.082031l33.339844 4.847657 14.914062 30.210937c1.007813 2.050782 3.09375 3.34375 5.378906 3.34375 2.28125 0 4.367188-1.292968 5.378907-3.34375l14.914062-30.214844 33.339844-4.847656c2.257813-.328125 4.136719-1.910156 4.839844-4.082031.707031-2.171875.121093-4.554687-1.515625-6.148437l-24.121094-23.515626 5.699219-33.210937c.386719-2.25-.539063-4.527344-2.386719-5.871094-1.847656-1.339843-4.296875-1.519531-6.316406-.453125l-29.832032 15.679688-29.828124-15.679688c-2.023438-1.066406-4.472657-.886718-6.320313.453125-1.847656 1.34375-2.773437 3.621094-2.386719 5.871094l5.699219 33.210937-24.121094 23.519532c-1.636719 1.59375-2.226562 3.976562-1.519531 6.148437zm36.277344-23.273437c1.414062-1.378906 2.058594-3.363282 1.722656-5.3125l-4.175781-24.335938 21.859375 11.492188c1.75.921875 3.835937.921875 5.585937 0l21.859375-11.492188-4.175781 24.335938c-.335937 1.949218.308594 3.933594 1.722656 5.3125l17.679688 17.230468-24.433594 3.550782c-1.953125.285156-3.640625 1.511718-4.515625 3.28125l-10.929688 22.140625-10.929687-22.140625c-.875-1.769532-2.5625-2.996094-4.515625-3.28125l-24.433594-3.550782zm0 0"/><path d="m.414062 123.285156c.707032 2.171875 2.582032 3.753906 4.84375 4.082032l33.339844 4.847656 14.914063 30.210937c1.011719 2.050781 3.09375 3.34375 5.378906 3.34375s4.371094-1.292969 5.378906-3.34375l14.914063-30.210937 33.339844-4.847656c2.261718-.328126 4.136718-1.910157 4.84375-4.082032.707031-2.171875.117187-4.554687-1.515626-6.152344l-24.125-23.511718 5.703126-33.210938c.382812-2.253906-.542969-4.527344-2.390626-5.871094-1.847656-1.339843-4.296874-1.519531-6.316406-.457031l-29.832031 15.679688-29.816406-15.683594c-2.023438-1.0625-4.472657-.886719-6.320313.457031-1.847656 1.339844-2.773437 3.617188-2.386718 5.867188l5.683593 33.21875-24.117187 23.511718c-1.636719 1.597657-2.226563 3.980469-1.519532 6.152344zm36.277344-23.277344c1.410156-1.378906 2.058594-3.363281 1.722656-5.308593l-4.164062-24.339844 21.851562 11.492187c1.75.917969 3.835938.917969 5.585938 0l21.859375-11.492187-4.175781 24.335937c-.335938 1.945313.3125 3.933594 1.726562 5.3125l17.675782 17.234376-24.433594 3.550781c-1.953125.285156-3.640625 1.511719-4.515625 3.28125l-10.933594 22.144531-10.929687-22.140625c-.875-1.769531-2.5625-2.996094-4.515626-3.28125l-24.433593-3.550781zm0 0"/><path d="m395.289062 123.285156c.703126-2.171875.117188-4.554687-1.519531-6.152344l-24.117187-23.511718 5.6875-33.214844c.382812-2.25-.542969-4.523438-2.390625-5.867188-1.847657-1.339843-4.296875-1.519531-6.316407-.453124l-29.820312 15.675781-29.828125-15.683594c-2.023437-1.0625-4.472656-.882813-6.320313.457031-1.847656 1.34375-2.773437 3.617188-2.386718 5.871094l5.699218 33.210938-24.125 23.515624c-1.636718 1.597657-2.222656 3.980469-1.519531 6.152344.707031 2.171875 2.585938 3.753906 4.84375 4.082032l33.339844 4.847656 14.914063 30.210937c1.011718 2.050781 3.09375 3.34375 5.378906 3.34375s4.371094-1.292969 5.378906-3.34375l14.914062-30.210937 33.339844-4.847656c2.261719-.328126 4.140625-1.910157 4.847656-4.082032zm-43.03125-2.492187c-1.953124.285156-3.644531 1.511719-4.515624 3.28125l-10.929688 22.144531-10.933594-22.140625c-.871094-1.769531-2.5625-2.996094-4.515625-3.28125l-24.429687-3.550781 17.675781-17.234375c1.414063-1.378907 2.058594-3.367188 1.726563-5.3125l-4.175782-24.335938 21.859375 11.492188c1.746094.917969 3.835938.917969 5.585938 0l21.84375-11.496094-4.167969 24.339844c-.332031 1.945312.3125 3.929687 1.726562 5.308593l17.679688 17.234376zm0 0"/></g></svg>